{
  "accessors": [
    {
      "bufferView": 0,
      "componentType": 5123,
      "count": 10698,
      "max": [10475],
      "min": [0],
      "type": "SCALAR"
    },
    {
      "bufferView": 1,
      "componentType": 5126,
      "count": 10476,
      "max": [15.373641967773438, 26.849262237548828, 28.92525863647461],
      "min": [-15.373641967773438, -26.849262237548828, -28.92525863647461],
      "type": "VEC3"
    },
    {
      "bufferView": 2,
      "componentType": 5126,
      "count": 10476,
      "max": [0.999847412109375, 0.999908447265625, 0.99981689453125],
      "min": [-0.9996337890625, -0.99993896484375, -0.99908447265625],
      "type": "VEC3"
    },
    {
      "bufferView": 3,
      "componentType": 5126,
      "count": 10476,
      "max": [1.0, 0.999855637550354, 0.9999116659164429, 1.0],
      "min": [
        -0.9999633431434631, -0.9999831914901733, -0.9998224973678589, -1.0
      ],
      "type": "VEC4"
    },
    {
      "bufferView": 4,
      "componentType": 5126,
      "count": 10476,
      "max": [1.4642014503479004, 1.0],
      "min": [0.0, 0.0],
      "type": "VEC2"
    }
  ],
  "asset": {
    "generator": "Khronos Blender glTF 2.0 exporter",
    "version": "2.0"
  },
  "bufferViews": [
    {
      "buffer": 0,
      "byteLength": 21396,
      "byteOffset": 0,
      "target": 34963
    },
    {
      "buffer": 0,
      "byteLength": 125712,
      "byteOffset": 21396,
      "target": 34962
    },
    {
      "buffer": 0,
      "byteLength": 125712,
      "byteOffset": 147108,
      "target": 34962
    },
    {
      "buffer": 0,
      "byteLength": 167616,
      "byteOffset": 272820,
      "target": 34962
    },
    {
      "buffer": 0,
      "byteLength": 83808,
      "byteOffset": 440436,
      "target": 34962
    }
  ],
  "buffers": [
    {
      "byteLength": 524244,
      "uri": "daniel-whole.bin"
    }
  ],
  "materials": [
    {
      "name": "Outer.009",
      "pbrMetallicRoughness": {
        "baseColorFactor": [
          0.3040000007152557, 0.3040000007152557, 0.3040000007152557, 1.0
        ],
        "metallicFactor": 0.0
      }
    }
  ],
  "meshes": [
    {
      "name": "Untitled.067",
      "primitives": [
        {
          "attributes": {
            "NORMAL": 2,
            "POSITION": 1,
            "TANGENT": 3,
            "TEXCOORD_0": 4
          },
          "indices": 0,
          "material": 0
        }
      ]
    }
  ],
  "nodes": [
    {
      "mesh": 0,
      "name": "Daniel_Whole",
      "rotation": [0.7071068286895752, 0.0, -0.0, 0.7071067094802856],
      "scale": [
        0.009999999776482582, 0.009999999776482582, 0.009999999776482582
      ]
    }
  ],
  "scene": 0,
  "scenes": [
    {
      "name": "Scene",
      "nodes": [0]
    }
  ]
}
